<?xml version="1.0" encoding="UTF-8"?>
<svg id="Camada_2" data-name="Camada 2" xmlns="http://www.w3.org/2000/svg" viewBox="0 0 1052.2 923.54">
  <defs>
    <style>
      .cls-1 {
        fill: #b1a5f2;
      }

      .cls-2 {
        fill: #db0000;
      }

      .cls-3 {
        fill: #3c1fde;
      }

      .cls-4 {
        fill: #634ce5;
      }
    </style>
  </defs>
  <g id="Camada_1-2" data-name="Camada 1">
    <g>
      <path class="cls-2" d="M536.88,543.84c-242.29,0-447.27,159.77-515.32,379.7h1030.65c-68.06-219.93-273.03-379.7-515.32-379.7Z"/>
      <path class="cls-3" d="M153.84,177.33c8.62-31.31,36.12-48.84,61.43-39.16l105.54,40.37.71-135.61c.12-22.94-21.86-41.64-49.09-41.79L54.16,0C26.93-.14,4.75,18.33,4.63,41.27c0,0-3.01,573.24-4.63,882.27h39.54L153.84,177.33Z"/>
      <path class="cls-4" d="M459.05,231.61l-138.24-52.88v-.19s-105.53-40.37-105.53-40.37c-25.3-9.68-52.81,7.85-61.43,39.16L39.54,923.54h45.79c86.04-216.81,228.06-535.62,220.52-536.85,3.02-8.13,7.94-15.65,13.97-22.05v-.51c16.16-16.82,30.4-22.8,57.62-16.56l93.36,24.19,18.45-65.94c8.62-31.31-4.9-64.53-30.2-74.21Z"/>
      <polygon class="cls-2" points="316.95 923.34 316.89 923.34 316.89 923.54 316.95 923.34"/>
      <path class="cls-1" d="M620.67,410.46l-149.37-38.7-93.36-24.19c-17.73-9.15-42.42-1.01-58.11,16.56-4.56,5.11-10.95,14.43-13.97,22.56-1.81,5.64-134.49,320.04-220.52,536.85h299.91c104.86-156.55,272.36-406.6,272.36-406.6,21.75-37.66,2.83-95.78-36.94-106.47Z"/>
    </g>
  </g>
</svg>